<svg width="40" height="40" viewBox="0 0 40 40" fill="none" xmlns="http://www.w3.org/2000/svg">
<g clip-path="url(#clip0_1_409)">
<rect width="40" height="40" rx="3" fill="#0085FF"/>
<path d="M33.9997 27.7997L33.9424 25.4544L33.9137 24.2808L33.8999 23.6944V23.5751C33.8999 23.5216 33.8999 23.4671 33.8892 23.4136C33.8785 23.3059 33.8618 23.1987 33.8393 23.0927C33.7952 22.8801 33.7264 22.6731 33.6342 22.4755C33.3598 21.8817 32.8903 21.3924 32.2987 21.0838C32.2509 21.058 32.201 21.0354 32.151 21.0117L32.0756 20.9778L32.0373 20.9624L31.8982 20.9058L30.7804 20.4532L28.5492 19.5449L27.9925 19.3196L27.9288 19.1911L27.6578 18.6644L26.607 16.5516L25.5573 14.4387L25.2949 13.91L25.16 13.6405C25.1302 13.5881 25.0994 13.5377 25.0675 13.4852C25.0505 13.4574 25.0378 13.4379 25.0229 13.4173L24.9804 13.3576C24.9232 13.2776 24.8612 13.201 24.7945 13.1283C24.5285 12.8364 24.1995 12.6046 23.8308 12.4494C23.5565 12.3321 23.2638 12.2604 22.9649 12.2375C22.915 12.2323 22.8661 12.2303 22.8161 12.2292H22.6865L17.8406 12.3321L16.6283 12.3578L16.3255 12.364H16.2479C16.2012 12.364 16.1544 12.364 16.1077 12.3691C16.014 12.3758 15.9207 12.3871 15.8283 12.4031C15.2711 12.4979 14.7621 12.7686 14.3806 13.173C13.9991 13.5773 13.7665 14.0926 13.7193 14.6383C13.7193 14.6825 13.7129 14.7278 13.7118 14.772V14.8893V15.0364L13.7182 15.3295L13.732 15.9159L13.8382 20.6075L13.8914 22.9425C13.8955 23.0035 13.8855 23.0645 13.8621 23.1213C13.8388 23.1781 13.8027 23.2291 13.7564 23.2706C13.7073 23.3152 13.6485 23.3488 13.5844 23.3689C13.5204 23.389 13.4525 23.3951 13.3856 23.3869C13.3147 23.3783 13.2466 23.3546 13.1862 23.3176C13.1258 23.2807 13.0745 23.2312 13.0361 23.1729C12.9959 23.1127 12.9701 23.0445 12.9606 22.9734C12.9553 22.9641 12.9543 22.8314 12.9522 22.7409L12.9447 22.4477L12.8905 20.1045L12.7768 15.4129L12.7184 13.0624V12.9164V12.8217C12.7184 12.7867 12.7131 12.7507 12.7099 12.7189C12.6949 12.5788 12.6639 12.4408 12.6175 12.3074C12.5025 11.9736 12.2947 11.6768 12.0169 11.4498C11.7391 11.2228 11.4021 11.0743 11.0429 11.0206C10.9717 11.0103 10.9005 11.0041 10.8304 11C10.7953 11 10.7592 11 10.7241 11H10.6445L5.79852 11.1111L-13.5863 11.5534L5.79852 11.9957L10.6445 12.1058H10.7167H10.7613C10.791 12.1087 10.8204 12.1131 10.8495 12.1192C10.9066 12.1312 10.9621 12.1492 11.0153 12.1727C11.1201 12.2187 11.2132 12.2866 11.2879 12.3714C11.3626 12.4562 11.4172 12.5558 11.4477 12.6633C11.4628 12.7153 11.4717 12.7688 11.4743 12.8227C11.4743 12.8372 11.4743 12.8505 11.4743 12.8639V12.9164V13.0624L11.4179 15.4088L11.2915 20.1045L11.2309 22.4467L11.2246 22.7399C11.2246 22.8427 11.215 22.9075 11.2246 23.0927C11.2429 23.4132 11.3344 23.7259 11.4923 24.0082C11.6516 24.293 11.8734 24.5405 12.1421 24.7333C12.4109 24.9261 12.72 25.0596 13.0478 25.1242C13.5487 25.2215 14.0687 25.1565 14.5277 24.9391C14.9866 24.7218 15.3589 24.3643 15.5871 23.9218C15.7405 23.6238 15.8247 23.2969 15.8336 22.9641L15.8878 20.6065L15.994 15.9148L16.0078 15.3285L16.0142 15.0354V14.8883V14.8584C16.0142 14.8584 16.0142 14.8502 16.0142 14.8461C16.0212 14.8159 16.0352 14.7877 16.0551 14.7634C16.0749 14.7392 16.1002 14.7197 16.1289 14.7062C16.1543 14.6938 16.1823 14.6874 16.2108 14.6877H16.317L16.6198 14.6949L17.8321 14.7206L22.678 14.8235H22.6993V14.8317C22.7006 14.8342 22.7013 14.8371 22.7013 14.8399C22.7013 14.8428 22.7006 14.8456 22.6993 14.8481C22.6993 14.8481 22.6993 14.8481 22.6993 14.843C22.6922 14.8342 22.6865 14.8245 22.6823 14.8142L22.7991 15.0775L23.0382 15.6176L23.9944 17.7777L24.9507 19.9378L25.1897 20.4769L25.2492 20.6126L25.279 20.6795L25.2938 20.7134L25.3119 20.7484L25.3385 20.7957L25.365 20.8431L25.3884 20.8832L25.4288 20.949C25.4575 20.9922 25.4861 21.0354 25.517 21.0776C25.5779 21.1616 25.6431 21.2426 25.7124 21.3203C25.9233 21.553 26.172 21.7507 26.4487 21.9056C26.4955 21.9324 26.5422 21.956 26.59 21.9797L26.7101 22.0363L27.2573 22.2883L29.446 23.2974L30.5084 23.788L30.4968 24.2684L30.4819 25.4534L30.4543 26.5849L-27 28.2698L32.1032 30H32.2095C32.6744 29.9863 33.1155 29.7976 33.439 29.4739C33.7624 29.1502 33.9426 28.7171 33.9413 28.2667C33.9829 28.1144 34.0026 27.9573 33.9997 27.7997ZM28.0106 19.37C28.0112 19.3724 28.0112 19.3749 28.0106 19.3772L27.9946 19.3464V19.3515C28.0008 19.357 28.0061 19.3632 28.0106 19.37ZM28.035 19.4215L28.018 19.3844V19.3793C28.018 19.3793 28.018 19.3793 28.018 19.3844L28.0265 19.3999L28.034 19.4153C28.0371 19.4256 28.0393 19.4318 28.035 19.4215ZM30.7167 23.8909H30.7103L30.6965 23.8858C30.6785 23.8787 30.6614 23.8697 30.6455 23.859L30.6869 23.8775L30.7167 23.8909Z" fill="white"/>
</g>
<defs>
<clipPath id="clip0_1_409">
<rect width="40" height="40" rx="3" fill="white"/>
</clipPath>
</defs>
</svg>
