<svg width="59" height="56" viewBox="0 0 59 56" fill="none" xmlns="http://www.w3.org/2000/svg">
<rect x="2.33325" width="56" height="56" rx="28" fill="#0F5FBD"/>
<path d="M0 36.7648L42.4958 37.316C43.3237 37.3267 44.0958 36.9001 44.5272 36.1935L44.601 36.0726C45.8497 34.0277 45.7341 31.4299 44.3086 29.5041V29.5041C43.9998 29.0868 43.5569 28.7883 43.0541 28.6588L41.2102 28.1835C38.3692 27.4513 36.1283 25.2696 35.3203 22.4492V22.4492C34.3518 19.0685 31.2607 16.7386 27.744 16.7386H24.5808C23.2468 16.7386 22.1653 17.8201 22.1653 19.1541V29.0108C22.1653 29.7925 21.7781 30.5234 21.1314 30.9625V30.9625C20.3772 31.4746 19.3956 31.5063 18.6099 31.044L18.5213 30.9918C17.7512 30.5387 17.2785 29.712 17.2785 28.8186V23C17.2785 18.0294 13.249 14 8.27848 14H0" stroke="url(#paint0_linear_3_419)" stroke-width="1.5"/>
<defs>
<linearGradient id="paint0_linear_3_419" x1="29.1201" y1="9.37009" x2="3.41708" y2="18.5615" gradientUnits="userSpaceOnUse">
<stop offset="0.261472" stop-color="white"/>
<stop offset="0.742633" stop-color="white" stop-opacity="0"/>
</linearGradient>
</defs>
</svg>
