<svg viewBox="0 0 24 24" fill="none" xmlns="http://www.w3.org/2000/svg">
<path fill-rule="evenodd" clip-rule="evenodd" d="M12.6659 4.36512C13.0659 3.91609 13.7549 3.87565 14.2049 4.27478L21.9977 11.1869C22.2305 11.3934 22.3636 11.6893 22.3636 12C22.3636 12.3107 22.2305 12.6065 21.9977 12.8131L14.2049 19.7252C13.7549 20.1243 13.0659 20.0839 12.6659 19.6349C12.2659 19.1859 12.3063 18.4983 12.7564 18.0992L18.4062 13.0878H3.09015C2.48807 13.0878 2 12.6007 2 12C2 11.3992 2.48807 10.9122 3.09015 10.9122H18.4062L12.7564 5.90087C12.3063 5.50173 12.2659 4.81415 12.6659 4.36512Z" fill="currentColor"/>
</svg>
