<svg viewBox="0 0 24 24" fill="none" xmlns="http://www.w3.org/2000/svg">
<path fill-rule="evenodd" clip-rule="evenodd" d="M20.5892 12.5081C21.0944 12.928 21.1399 13.6512 20.6909 14.1236L12.9147 22.3034C12.6825 22.5478 12.3496 22.6875 12 22.6875C11.6505 22.6875 11.3176 22.5478 11.0853 22.3034L3.30913 14.1236C2.86011 13.6512 2.9056 12.928 3.41075 12.5081C3.91589 12.0882 4.6894 12.1307 5.13842 12.6031L10.7762 18.5336L10.7762 2.4568C10.7762 1.82481 11.3242 1.3125 12 1.3125C12.6759 1.3125 13.2238 1.82481 13.2238 2.4568L13.2238 18.5336L18.8615 12.6031C19.3106 12.1307 20.0841 12.0882 20.5892 12.5081Z" fill="currentColor"/>
</svg>
