<svg viewBox="0 0 24 24" fill="none" xmlns="http://www.w3.org/2000/svg">
<path fill-rule="evenodd" clip-rule="evenodd" d="M12.5081 3.41076C12.928 2.9056 13.6512 2.86011 14.1236 3.30912L22.3034 11.0853C22.5478 11.3175 22.6875 11.6504 22.6875 12C22.6875 12.3495 22.5478 12.6824 22.3034 12.9147L14.1236 20.6909C13.6512 21.1399 12.928 21.0944 12.5081 20.5893C12.0882 20.0841 12.1307 19.3106 12.6031 18.8616L18.5336 13.2238H2.4568C1.82481 13.2238 1.3125 12.6758 1.3125 12C1.3125 11.3241 1.82481 10.7762 2.4568 10.7762H18.5336L12.6031 5.13848C12.1307 4.68945 12.0882 3.91592 12.5081 3.41076Z" fill="currentColor"/>
</svg>
