<svg width="24" height="24" viewBox="0 0 24 24" fill="none" xmlns="http://www.w3.org/2000/svg">
<path fill-rule="evenodd" clip-rule="evenodd" d="M3.41076 11.4919C2.9056 11.072 2.86011 10.3488 3.30912 9.87639L11.0853 1.69664C11.3175 1.4522 11.6504 1.3125 12 1.3125C12.3495 1.3125 12.6824 1.4522 12.9147 1.69664L20.6909 9.87639C21.1399 10.3488 21.0944 11.072 20.5893 11.4919C20.0841 11.9118 19.3106 11.8693 18.8616 11.3969L13.2238 5.46643L13.2238 21.5432C13.2238 22.1752 12.6758 22.6875 12 22.6875C11.3241 22.6875 10.7762 22.1752 10.7762 21.5432L10.7762 5.46643L5.13848 11.3969C4.68945 11.8693 3.91592 11.9118 3.41076 11.4919Z" fill="currentColor"/>
</svg>
