<svg width="24" height="24" viewBox="0 0 24 24" fill="none" xmlns="http://www.w3.org/2000/svg">
<path fill-rule="evenodd" clip-rule="evenodd" d="M11.4919 20.5892C11.072 21.0944 10.3488 21.1399 9.87639 20.6909L1.69664 12.9147C1.4522 12.6825 1.3125 12.3496 1.3125 12C1.3125 11.6505 1.4522 11.3176 1.69664 11.0853L9.87639 3.30913C10.3488 2.86011 11.072 2.9056 11.4919 3.41075C11.9118 3.91589 11.8693 4.6894 11.3969 5.13842L5.46643 10.7762L21.5432 10.7762C22.1752 10.7762 22.6875 11.3242 22.6875 12C22.6875 12.6759 22.1752 13.2238 21.5432 13.2238L5.46643 13.2238L11.3969 18.8615C11.8693 19.3106 11.9118 20.0841 11.4919 20.5892Z" fill="white"/>
</svg>
