<svg viewBox="0 0 24 24" fill="none" xmlns="http://www.w3.org/2000/svg">
<path fill-rule="evenodd" clip-rule="evenodd" d="M12 2C10.6765 2 9.45303 2.57564 7.50956 3.49002L4.78723 4.77021C4.25058 5.02255 3.78999 5.23911 3.42773 5.45856C3.03995 5.69347 2.70153 5.96759 2.44856 6.36661C2.19561 6.76562 2.09179 7.18911 2.04431 7.64072C1.99996 8.06265 1.99999 8.57256 2 9.16674V14.8332C1.99999 15.4275 1.99996 15.9374 2.04431 16.3594C2.09179 16.8109 2.19561 17.2344 2.44856 17.6335C2.70153 18.0325 3.03995 18.3065 3.42773 18.5415C3.78996 18.7609 4.25048 18.9775 4.78706 19.2296L7.50955 20.51C9.453 21.4244 10.6765 22 12 22C13.3235 22 14.547 21.4244 16.4905 20.51L19.2128 19.2298C19.7495 18.9775 20.21 18.7609 20.5724 18.5415C20.96 18.3065 21.2985 18.0325 21.5515 17.6335C21.8045 17.2344 21.9083 16.8109 21.9556 16.3594C22 15.9374 22 15.4275 22 14.8332V9.1668C22 8.57263 22 8.06265 21.9556 7.64072C21.9083 7.18911 21.8045 6.76562 21.5515 6.36661C21.2985 5.96759 20.96 5.69347 20.5724 5.45856C20.21 5.23911 19.7495 5.02255 19.2128 4.77021L16.4905 3.49004C14.547 2.57564 13.3235 2 12 2ZM8.03455 5.10396C9.13051 4.5886 9.89585 4.23345 10.5025 4.00685C11.1078 3.78075 11.5502 3.68454 12 3.68454C12.4498 3.68454 12.8922 3.78075 13.4975 4.00685C14.1041 4.23345 14.8695 4.5886 15.9655 5.10396L18.4605 6.27728C18.7315 6.4047 18.9586 6.51175 19.1525 6.60688L13.2299 9.05129C12.8184 9.22115 12.5602 9.32404 12.3782 9.38459C12.1975 9.4447 12.097 9.46136 12 9.46136C11.903 9.46136 11.8024 9.4447 11.6218 9.38459C11.4398 9.32404 11.1816 9.22115 10.7701 9.05129L4.8476 6.60688C5.04128 6.51175 5.26844 6.4047 5.53941 6.27728L8.03455 5.10396ZM3.68095 9.20895C3.68095 8.6506 3.68174 8.26083 3.70376 7.95659L10.2455 10.6567C10.5741 10.7926 10.8724 10.9161 11.1595 11.0048V20.2037C10.4544 20.0244 9.5695 19.6177 8.03455 18.896L5.53941 17.7228C4.95443 17.4476 4.57488 17.268 4.29731 17.0997C4.03675 16.942 3.93194 16.8319 3.86739 16.7301C3.80284 16.6282 3.74791 16.4864 3.71601 16.1827C3.68203 15.8595 3.68095 15.4387 3.68095 14.7911V9.20895ZM13.7545 10.6567L20.2962 7.95659C20.3182 8.26083 20.319 8.6506 20.319 9.20894V14.7911C20.319 15.4387 20.318 15.8595 20.284 16.1827C20.2521 16.4864 20.1971 16.6282 20.1325 16.7301C20.0681 16.8319 19.9632 16.942 19.7026 17.0997C19.4251 17.268 19.0455 17.4476 18.4605 17.7228L15.9655 18.896C14.4305 19.6177 13.5456 20.0244 12.8405 20.2037V11.0048C13.1276 10.9161 13.4259 10.7926 13.7545 10.6567Z" fill="currentColor"/>
</svg>
