<svg viewBox="0 0 24 24" fill="none" xmlns="http://www.w3.org/2000/svg">
<path fill-rule="evenodd" clip-rule="evenodd" d="M6.14787 7.00094C6.59097 4.16765 9.04234 2 12 2C14.9577 2 17.409 4.16765 17.8521 7.00095C18.2123 7.06466 18.5461 7.15848 18.8654 7.29882C20.068 7.82724 21.0284 8.78768 21.5569 9.9902C21.7974 10.5377 21.9013 11.1275 21.9512 11.8208C22 12.4992 22 13.3378 22 14.3959V14.4598C22 15.5179 22 16.3564 21.9512 17.035C21.9013 17.7282 21.7974 18.318 21.5569 18.8655C21.0284 20.068 20.068 21.0284 18.8654 21.5569C18.318 21.7974 17.7282 21.9013 17.0349 21.9512C16.3565 22 15.5179 22 14.4598 22H9.5402C8.48208 22 7.6435 22 6.96502 21.9512C6.27172 21.9013 5.68198 21.7974 5.13446 21.5569C3.93193 21.0284 2.9715 20.068 2.44308 18.8655C2.20249 18.318 2.09862 17.7282 2.04877 17.035C1.99999 16.3564 2 15.5179 2 14.4598V14.396C2 13.3379 1.99999 12.4992 2.04877 11.8208C2.09862 11.1275 2.20249 10.5377 2.44308 9.9902C2.9715 8.78768 3.93193 7.82724 5.13446 7.29882C5.45383 7.15847 5.78758 7.06466 6.14787 7.00094ZM7.8645 6.86617C8.33493 5.02076 10.0081 3.65605 12 3.65605C13.9919 3.65605 15.665 5.02076 16.1355 6.86617C15.647 6.85574 15.0926 6.85574 14.4598 6.85574H9.5402C8.90734 6.85574 8.35301 6.85574 7.8645 6.86617ZM5.80068 8.81495C6.10226 8.68242 6.47964 8.59974 7.08378 8.55629C7.69591 8.51229 8.47501 8.51179 9.5721 8.51179H14.4278C15.5249 8.51179 16.304 8.51229 16.9162 8.55629C17.5203 8.59974 17.8977 8.68242 18.1992 8.81495C19.022 9.17649 19.6792 9.83363 20.0408 10.6564C20.1732 10.958 20.256 11.3354 20.2994 11.9395C20.3434 12.5517 20.3439 13.3308 20.3439 14.4279C20.3439 15.525 20.3434 16.3041 20.2994 16.9162C20.256 17.5203 20.1732 17.8976 20.0408 18.1993C19.6792 19.0221 19.022 19.6792 18.1992 20.0408C17.8977 20.1733 17.5203 20.256 16.9162 20.2994C16.304 20.3434 15.5249 20.3439 14.4278 20.3439H9.5721C8.47501 20.3439 7.69591 20.3434 7.08378 20.2994C6.47964 20.256 6.10226 20.1733 5.80068 20.0408C4.97789 19.6792 4.32075 19.0221 3.95921 18.1993C3.82668 17.8976 3.74399 17.5203 3.70055 16.9162C3.65655 16.3041 3.65605 15.525 3.65605 14.4279C3.65605 13.3308 3.65655 12.5517 3.70055 11.9395C3.74399 11.3354 3.82668 10.958 3.95921 10.6564C4.32075 9.83363 4.97789 9.17649 5.80068 8.81495Z" fill="currentColor"/>
<path fill-rule="evenodd" clip-rule="evenodd" d="M11.9997 12.8281C11.2375 12.8281 10.6197 13.446 10.6197 14.2081C10.6197 14.9703 11.2375 15.5882 11.9997 15.5882C12.7619 15.5882 13.3798 14.9703 13.3798 14.2081C13.3798 13.446 12.7619 12.8281 11.9997 12.8281ZM8.96362 14.2081C8.96362 12.5313 10.3229 11.1721 11.9997 11.1721C13.6765 11.1721 15.0358 12.5313 15.0358 14.2081C15.0358 15.8849 13.6765 17.2442 11.9997 17.2442C10.3229 17.2442 8.96362 15.8849 8.96362 14.2081Z" fill="currentColor"/>
</svg>
