<svg viewBox="0 0 24 24" fill="none" xmlns="http://www.w3.org/2000/svg">
<path fill-rule="evenodd" clip-rule="evenodd" d="M14.0815 3H9.91844C8.26295 2.99999 6.95128 2.99998 5.90794 3.11153C4.83808 3.22591 3.95008 3.4656 3.18785 4.01318C2.74587 4.3307 2.35623 4.713 2.03262 5.14667C1.47453 5.89454 1.23024 6.76583 1.11366 7.81556C0.99998 8.83925 0.999989 10.1262 1 11.7505V11.8494C0.999989 13.4738 0.99998 14.7608 1.11366 15.7844C1.23024 16.8342 1.47453 17.7055 2.03262 18.4533C2.35623 18.887 2.74587 19.2693 3.18785 19.5868C3.95008 20.1344 4.83808 20.3741 5.90794 20.4885C6.95128 20.6 8.26293 20.6 9.91842 20.6H14.0815C15.737 20.6 17.0487 20.6 18.092 20.4885C19.1619 20.3741 20.0499 20.1344 20.8121 19.5868C21.2542 19.2693 21.6438 18.887 21.9674 18.4533C22.5255 17.7055 22.7698 16.8342 22.8864 15.7844C23 14.7608 23 13.4739 23 11.8495V11.7506C23 10.1263 23 8.83924 22.8864 7.81556C22.7698 6.76583 22.5255 5.89454 21.9674 5.14667C21.6438 4.713 21.2542 4.3307 20.8121 4.01318C20.0499 3.4656 19.1619 3.22591 18.092 3.11153C17.0487 2.99998 15.737 2.99999 14.0815 3ZM4.1852 5.3497C4.61062 5.04408 5.16556 4.85717 6.09081 4.75825C7.03204 4.65762 8.25168 4.65647 9.96883 4.65647H14.0312C15.7484 4.65647 16.9679 4.65762 17.9092 4.75825C18.8344 4.85717 19.3894 5.04408 19.8148 5.3497C20.1172 5.56695 20.3838 5.82852 20.6052 6.12524C20.8048 6.39267 20.9547 6.71227 21.0631 7.14618L15.0731 10.8581C14.1819 11.4104 13.5676 11.7898 13.0561 12.0377C12.5624 12.277 12.2308 12.3593 11.9178 12.3593C11.6048 12.3593 11.2732 12.277 10.7795 12.0377C10.268 11.7898 9.65377 11.4104 8.76251 10.8581L2.91561 7.23488C3.02546 6.7553 3.18185 6.41058 3.39478 6.12524C3.6162 5.82852 3.88278 5.56695 4.1852 5.3497ZM2.71738 9.07122C2.68874 9.81353 2.68825 10.7034 2.68825 11.8C2.68825 13.4849 2.68942 14.6816 2.79198 15.605C2.8928 16.5128 3.08329 17.0573 3.39478 17.4748C3.6162 17.7715 3.88278 18.033 4.1852 18.2503C4.61062 18.5559 5.16556 18.7429 6.09081 18.8418C7.03204 18.9424 8.25168 18.9435 9.96883 18.9435H14.0312C15.7484 18.9435 16.9679 18.9424 17.9092 18.8418C18.8344 18.7429 19.3894 18.5559 19.8148 18.2503C20.1172 18.033 20.3838 17.7715 20.6052 17.4748C20.9167 17.0573 21.1072 16.5128 21.208 15.605C21.3106 14.6816 21.3117 13.4849 21.3117 11.8C21.3117 10.654 21.3112 9.73383 21.2786 8.97186L15.9367 12.2822C15.0925 12.8053 14.4039 13.2321 13.8038 13.5229C13.1768 13.8268 12.5818 14.0158 11.9178 14.0158C11.2538 14.0158 10.6588 13.8268 10.0319 13.5229C9.43172 13.2321 8.74308 12.8053 7.89898 12.2822L2.71738 9.07122Z" fill="currentColor"/>
</svg>
