<svg viewBox="0 0 24 24" fill="none" xmlns="http://www.w3.org/2000/svg">
<path fill-rule="evenodd" clip-rule="evenodd" d="M7.70028 4H12.268C12.8377 4 13.3037 3.99998 13.6842 4.02803C14.0774 4.05702 14.4346 4.1187 14.7758 4.27165C15.5577 4.62216 16.1797 5.28369 16.5092 6.11512C16.653 6.47791 16.711 6.85784 16.7383 7.27602C16.7558 7.5448 16.7617 7.85372 16.7637 8.20844L18.9108 8.86312C19.4242 9.0196 19.8573 9.15171 20.2053 9.29548C20.573 9.44738 20.9033 9.63437 21.1863 9.93295C21.3737 10.1305 21.5332 10.3557 21.6602 10.6016C21.852 10.9732 21.93 11.3625 21.966 11.7802C22 12.1755 22 12.6548 22 13.2227V14.9567C22 15.6642 22.0002 16.2739 21.9383 16.762C21.8722 17.2853 21.723 17.7868 21.3405 18.1936C20.958 18.6005 20.4863 18.759 19.9945 18.8295C19.5517 18.8927 19.0028 18.8948 18.3677 18.895C18.0415 20.1103 16.9895 21 15.742 21C14.4946 21 13.4426 20.1103 13.1165 18.895H9.36132C9.03522 20.1103 7.9832 21 6.73577 21C5.46095 21 4.39022 20.0707 4.08982 18.8144C2.89087 18.5076 2 17.3595 2 15.9903V10.0621C1.99998 8.85656 1.99997 7.87134 2.09828 7.09356C2.20107 6.28055 2.4235 5.57567 2.95257 5.01304C3.48163 4.45039 4.14443 4.21385 4.90892 4.10453C5.64027 3.99997 6.56668 3.99998 7.70028 4ZM4.15525 17.1467C4.52527 16.0098 5.54088 15.1933 6.73577 15.1933C7.98328 15.1933 9.03535 16.0832 9.36137 17.2986H13.1164C13.4425 16.0832 14.4945 15.1933 15.742 15.1933C16.9895 15.1933 18.0417 16.0832 18.3677 17.2986C19.0287 17.2983 19.4668 17.2942 19.7943 17.2472C20.12 17.2007 20.222 17.1256 20.2792 17.0649C20.3363 17.0041 20.4068 16.8956 20.4507 16.5494C20.4973 16.1802 20.499 15.6792 20.499 14.9041V14.056L19.0162 14.0561C18.6017 14.0561 18.2657 13.6987 18.2657 13.2579C18.2657 12.8172 18.6017 12.4598 19.0162 12.4598L20.4948 12.4597C20.4912 12.2515 20.4843 12.0779 20.4712 11.9258C20.4453 11.626 20.3997 11.4771 20.3445 11.3701C20.2868 11.2583 20.2142 11.156 20.1292 11.0661C20.0477 10.9801 19.9257 10.8925 19.6617 10.7835C19.3853 10.6693 19.0188 10.5567 18.4653 10.3879L16.7647 9.86939V13.5505C16.7647 13.9913 16.4287 14.3486 16.0142 14.3486C15.5997 14.3486 15.2636 13.9913 15.2636 13.5505V8.81022C15.2636 8.16932 15.2632 7.72925 15.2408 7.3864C15.219 7.05088 15.1787 6.8681 15.1261 6.73523C14.9486 6.28755 14.6136 5.93134 14.1927 5.74259C14.0677 5.6866 13.8959 5.64379 13.5804 5.62054C13.258 5.59678 12.8442 5.59634 12.2415 5.59634H7.75402C6.55347 5.59634 5.72855 5.59802 5.10892 5.68663C4.51088 5.77213 4.21765 5.9252 4.01397 6.14181C3.81028 6.35841 3.66635 6.67028 3.58595 7.30627C3.50263 7.96523 3.50105 8.8425 3.50105 10.1193V15.9903C3.50105 16.4916 3.76608 16.9269 4.15525 17.1467ZM15.742 19.4038C16.4208 19.4038 16.971 18.8185 16.971 18.0967C16.971 17.3749 16.4208 16.7897 15.742 16.7897C15.0633 16.7897 14.5131 17.3749 14.5131 18.0967C14.5131 18.8185 15.0633 19.4038 15.742 19.4038ZM7.96475 18.0967C7.96475 18.8185 7.41452 19.4038 6.73577 19.4038C6.05703 19.4038 5.50678 18.8185 5.50678 18.0967C5.50678 17.3749 6.05703 16.7897 6.73577 16.7897C7.41452 16.7897 7.96475 17.3749 7.96475 18.0967Z" fill="currentColor"/>
</svg>
